<svg xmlns="http://www.w3.org/2000/svg" version="1.1" width="3300" height="2000"><g id="Notes"><style>
    text {
      font-family: monospace;
      text-anchor: middle;
    }
    text.emphasis {
      font-weight:bold;
    }
    text.lanchor {
      text-anchor: start;
    }
  </style><rect height="2200" id="artboard" fill="white" width="3300" x="0" y="0"/><line id="" style="fill:none;stroke:black;stroke-width:0.5;" x1="263" x2="3036" y1="292" y2="292"/><text class="lanchor emphasis" transform="matrix(1 0 0 1 263 322)">Weight/Scale Variations</text><text transform="matrix(1 0 0 1 559.711 322)">Ultralight</text><text transform="matrix(1 0 0 1 856.422 322)">Thin</text><text transform="matrix(1 0 0 1 1153.13 322)">Light</text><text transform="matrix(1 0 0 1 1449.84 322)">Regular</text><text transform="matrix(1 0 0 1 1746.56 322)">Medium</text><text transform="matrix(1 0 0 1 2043.27 322)">Semibold</text><text transform="matrix(1 0 0 1 2339.98 322)">Bold</text><text transform="matrix(1 0 0 1 2636.69 322)">Heavy</text><text transform="matrix(1 0 0 1 2933.4 322)">Black</text><text id="template-version" style="text-anchor: end;" transform="matrix(1 0 0 1 3036 1933)">Template v.1.0</text><text class="lanchor" transform="matrix(1 0 0 1 263 726)">Small</text><text class="lanchor" transform="matrix(1 0 0 1 263 1156)">Medium</text><text class="lanchor" transform="matrix(1 0 0 1 263 1586)">Large</text></g><g id="Guides"><g id="H-reference" style="fill:#27AAE1;stroke:none;" transform="matrix(1 0 0 1 339 696)"><path d="M 54.9316 0 L 57.666 0 L 30.5664 -70.459 L 28.0762 -70.459 L 0.976562 0 L 3.66211 0 L 12.9395 -24.4629 L 45.7031 -24.4629 Z M 29.1992 -67.0898 L 29.4434 -67.0898 L 44.8242 -26.709 L 13.8184 -26.709 Z"/></g><line id="Baseline-S" style="fill:none;stroke:#27AAE1;opacity:1;stroke-width:0.577;" x1="263" x2="3036" y1="696" y2="696"/><line id="Capline-S" style="fill:none;stroke:#27AAE1;opacity:1;stroke-width:0.577;" x1="263" x2="3036" y1="625.541" y2="625.541"/><g id="H-reference" style="fill:#27AAE1;stroke:none;" transform="matrix(1 0 0 1 339 1126)"><path d="M 54.9316 0 L 57.666 0 L 30.5664 -70.459 L 28.0762 -70.459 L 0.976562 0 L 3.66211 0 L 12.9395 -24.4629 L 45.7031 -24.4629 Z M 29.1992 -67.0898 L 29.4434 -67.0898 L 44.8242 -26.709 L 13.8184 -26.709 Z"/></g><line id="Baseline-M" style="fill:none;stroke:#27AAE1;opacity:1;stroke-width:0.577;" x1="263" x2="3036" y1="1126" y2="1126"/><line id="Capline-M" style="fill:none;stroke:#27AAE1;opacity:1;stroke-width:0.577;" x1="263" x2="3036" y1="1055.54" y2="1055.54"/><g id="H-reference" style="fill:#27AAE1;stroke:none;" transform="matrix(1 0 0 1 339 1556)"><path d="M 54.9316 0 L 57.666 0 L 30.5664 -70.459 L 28.0762 -70.459 L 0.976562 0 L 3.66211 0 L 12.9395 -24.4629 L 45.7031 -24.4629 Z M 29.1992 -67.0898 L 29.4434 -67.0898 L 44.8242 -26.709 L 13.8184 -26.709 Z"/></g><line id="Baseline-L" style="fill:none;stroke:#27AAE1;opacity:1;stroke-width:0.577;" x1="263" x2="3036" y1="1556" y2="1556"/><line id="Capline-L" style="fill:none;stroke:#27AAE1;opacity:1;stroke-width:0.577;" x1="263" x2="3036" y1="1485.54" y2="1485.54"/><rect height="119.336" id="left-margin" style="fill:darkred;stroke:none;opacity:0.4;" width="12.4512" x="1394.06" y="1030.79"/><rect height="119.336" id="right-margin" style="fill:darkgreen;stroke:none;opacity:0.4;" width="12.4512" x="1502.5112" y="1030.79"/><rect x="1406.5112" y="1045" width="96" height="96" fill="none" stroke="blue" stroke-dasharray="5"/><rect x="1394.06" y="1030.79" width="120.9024" height="119.336" fill="none" stroke="blue"/></g><g id="Symbols"><g id="Bold-L" transform="matrix(1 0 0 1 2266 1556)"><path d="M36.926 33.301 Q30.629 33.301 26.199 28.871 Q21.769 24.441 21.769 18.144 V-60.869 Q21.769 -67.232 26.199 -71.71 Q30.629 -76.187 36.926 -76.187 H50.471 V-77.8 Q50.794 -88.765 58.614 -96.344 Q66.435 -103.922 77.4 -103.922 Q88.365 -103.922 96.186 -96.344 Q104.006 -88.765 104.329 -77.8 V-76.187 H117.874 Q124.237 -76.187 128.715 -71.71 Q133.192 -67.232 133.192 -60.869 V18.144 Q133.192 24.441 128.715 28.871 Q124.237 33.301 117.874 33.301 H36.926 Z M65.79 -76.187 H89.01 V-77.8 Q88.688 -82.315 85.382 -85.459 Q82.076 -88.604 77.4 -88.604 Q72.724 -88.604 69.418 -85.459 Q66.112 -82.315 65.79 -77.8 V-76.187 Z M96.75 -41.519 Q99.975 -41.519 102.152 -43.696 Q104.329 -45.872 104.329 -49.097 V-60.869 H89.171 V-49.097 Q89.171 -45.872 91.348 -43.696 Q93.525 -41.519 96.75 -41.519 Z M58.05 -41.519 Q61.275 -41.519 63.452 -43.696 Q65.629 -45.872 65.629 -49.097 V-60.869 H50.471 V-49.097 Q50.471 -45.872 52.648 -43.696 Q54.825 -41.519 58.05 -41.519 Z"/></g><g id="Semibold-L" transform="matrix(1 0 0 1 1970.27 1556)"><path d="M36.295 31.549 Q31.054 31.549 27.288 27.782 Q23.521 24.016 23.521 18.775 V-62.341 Q23.521 -67.62 27.288 -71.413 Q31.054 -75.206 36.295 -75.206 H51.663 V-76.818 Q51.845 -87.433 59.315 -94.766 Q66.786 -102.1 77.4 -102.1 Q88.014 -102.1 95.485 -94.766 Q102.955 -87.433 103.137 -76.818 V-75.206 H118.505 Q123.784 -75.206 127.577 -71.413 Q131.37 -67.62 131.37 -62.341 V18.775 Q131.37 24.016 127.577 27.782 Q123.784 31.549 118.505 31.549 H36.295 Z M64.528 -75.206 H90.272 V-76.818 Q90.09 -82.035 86.398 -85.635 Q82.707 -89.235 77.4 -89.235 Q72.093 -89.235 68.402 -85.635 Q64.71 -82.035 64.528 -76.818 V-75.206 Z M96.75 -42.991 Q99.484 -42.991 101.311 -44.817 Q103.137 -46.644 103.137 -49.378 V-62.341 H90.363 V-49.378 Q90.363 -46.644 92.189 -44.817 Q94.016 -42.991 96.75 -42.991 Z M58.05 -42.991 Q60.784 -42.991 62.611 -44.817 Q64.437 -46.644 64.437 -49.378 V-62.341 H51.663 V-49.378 Q51.663 -46.644 53.489 -44.817 Q55.316 -42.991 58.05 -42.991 Z"/></g><g id="Medium-L" transform="matrix(1 0 0 1 1674.31 1556)"><path d="M35.822 30.234 Q31.372 30.234 28.104 26.966 Q24.836 23.698 24.836 19.248 V-63.445 Q24.836 -67.912 28.104 -71.191 Q31.372 -74.47 35.822 -74.47 H52.557 V-76.082 Q52.634 -86.434 59.841 -93.583 Q67.048 -100.733 77.4 -100.733 Q87.752 -100.733 94.959 -93.583 Q102.166 -86.434 102.243 -76.082 V-74.47 H118.978 Q123.444 -74.47 126.723 -71.191 Q130.003 -67.912 130.003 -63.445 V19.248 Q130.003 23.698 126.723 26.966 Q123.444 30.234 118.978 30.234 H35.822 Z M63.582 -74.47 H91.218 V-76.082 Q91.141 -81.824 87.161 -85.766 Q83.18 -89.708 77.4 -89.708 Q71.62 -89.708 67.639 -85.766 Q63.659 -81.824 63.582 -76.082 V-74.47 Z M96.75 -44.095 Q99.116 -44.095 100.68 -45.659 Q102.243 -47.222 102.243 -49.588 V-63.445 H91.257 V-49.588 Q91.257 -47.222 92.82 -45.659 Q94.384 -44.095 96.75 -44.095 Z M58.05 -44.095 Q60.416 -44.095 61.98 -45.659 Q63.543 -47.222 63.543 -49.588 V-63.445 H52.557 V-49.588 Q52.557 -47.222 54.12 -45.659 Q55.684 -44.095 58.05 -44.095 Z"/></g><g id="Regular-L" transform="matrix(1 0 0 1 1378.56 1556)"><path d="M35.475 29.27 Q31.605 29.27 28.703 26.368 Q25.8 23.465 25.8 19.595 V-64.255 Q25.8 -68.125 28.703 -71.027 Q31.605 -73.93 35.475 -73.93 H53.212 V-75.542 Q53.212 -85.701 60.227 -92.716 Q67.241 -99.73 77.4 -99.73 Q87.559 -99.73 94.573 -92.716 Q101.588 -85.701 101.588 -75.542 V-73.93 H119.325 Q123.195 -73.93 126.097 -71.027 Q129 -68.125 129 -64.255 V19.595 Q129 23.465 126.097 26.368 Q123.195 29.27 119.325 29.27 H35.475 Z M62.888 -73.93 H91.913 V-75.542 Q91.913 -81.67 87.72 -85.862 Q83.528 -90.055 77.4 -90.055 Q71.273 -90.055 67.08 -85.862 Q62.888 -81.67 62.888 -75.542 V-73.93 Z M96.75 -44.905 Q98.846 -44.905 100.217 -46.276 Q101.588 -47.646 101.588 -49.742 V-64.255 H91.913 V-49.742 Q91.913 -47.646 93.283 -46.276 Q94.654 -44.905 96.75 -44.905 Z M58.05 -44.905 Q60.146 -44.905 61.517 -46.276 Q62.888 -47.646 62.888 -49.742 V-64.255 H53.212 V-49.742 Q53.212 -47.646 54.583 -46.276 Q55.954 -44.905 58.05 -44.905 Z"/></g><g id="Light-L" transform="matrix(1 0 0 1 1082.77 1556)"><path d="M38.328 26.045 Q34.534 26.045 31.78 23.29 Q29.025 20.536 29.025 16.742 V-61.402 Q29.025 -65.196 31.78 -67.95 Q34.534 -70.705 38.328 -70.705 H54.391 V-73.496 Q54.391 -83.158 61.064 -89.832 Q67.737 -96.505 77.4 -96.505 Q87.063 -96.505 93.736 -89.832 Q100.409 -83.158 100.409 -73.496 V-70.705 H116.472 Q120.266 -70.705 123.02 -67.95 Q125.775 -65.196 125.775 -61.402 V16.742 Q125.775 20.536 123.02 23.29 Q120.266 26.045 116.472 26.045 H38.328 Z M61.709 -70.705 H93.091 V-73.496 Q93.091 -80.119 88.557 -84.653 Q84.024 -89.187 77.4 -89.187 Q70.776 -89.187 66.243 -84.653 Q61.709 -80.119 61.709 -73.496 V-70.705 Z M96.751 -44.037 Q98.35 -44.037 99.38 -45.067 Q100.409 -46.097 100.409 -47.696 V-63.387 H93.091 V-47.696 Q93.091 -46.097 94.121 -45.067 Q95.152 -44.037 96.751 -44.037 Z M58.051 -44.037 Q59.65 -44.037 60.68 -45.067 Q61.709 -46.097 61.709 -47.696 V-63.387 H54.391 V-47.696 Q54.391 -46.097 55.421 -45.067 Q56.452 -44.037 58.051 -44.037 Z"/></g><g id="Thin-L" transform="matrix(1 0 0 1 787.282 1556)"><path d="M41.181 22.82 Q37.463 22.82 34.856 20.214 Q32.25 17.607 32.25 13.889 V-58.549 Q32.25 -62.267 34.856 -64.874 Q37.463 -67.48 41.181 -67.48 H55.569 V-71.449 Q55.569 -80.616 61.901 -86.948 Q68.234 -93.28 77.4 -93.28 Q86.566 -93.28 92.899 -86.948 Q99.231 -80.616 99.231 -71.449 V-67.48 H113.619 Q117.337 -67.48 119.944 -64.874 Q122.55 -62.267 122.55 -58.549 V13.889 Q122.55 17.607 119.944 20.214 Q117.337 22.82 113.619 22.82 H41.181 Z M60.531 -67.48 H94.269 V-71.449 Q94.269 -78.569 89.395 -83.444 Q84.52 -88.318 77.4 -88.318 Q70.28 -88.318 65.405 -83.444 Q60.531 -78.569 60.531 -71.449 V-67.48 Z M96.752 -43.168 Q97.854 -43.168 98.542 -43.858 Q99.231 -44.548 99.231 -45.649 V-62.518 H94.269 V-45.649 Q94.269 -44.548 94.96 -43.858 Q95.65 -43.168 96.752 -43.168 Z M58.052 -43.168 Q59.154 -43.168 59.842 -43.858 Q60.531 -44.548 60.531 -45.649 V-62.518 H55.569 V-45.649 Q55.569 -44.548 56.26 -43.858 Q56.95 -43.168 58.052 -43.168 Z"/></g><g id="Ultralight-L" transform="matrix(1 0 0 1 491.205 1556)"><path d="M42.892 20.885 Q39.22 20.885 36.703 18.367 Q34.185 15.85 34.185 12.178 V-56.837 Q34.185 -60.51 36.703 -63.028 Q39.22 -65.545 42.892 -65.545 H56.276 V-70.221 Q56.276 -79.09 62.404 -85.217 Q68.531 -91.345 77.4 -91.345 Q86.269 -91.345 92.396 -85.217 Q98.524 -79.09 98.524 -70.221 V-65.545 H111.907 Q115.58 -65.545 118.098 -63.028 Q120.615 -60.51 120.615 -56.837 V12.178 Q120.615 15.85 118.098 18.367 Q115.58 20.885 111.907 20.885 H42.892 Z M59.824 -65.545 H94.976 V-70.221 Q94.976 -77.639 89.897 -82.718 Q84.817 -87.797 77.4 -87.797 Q69.983 -87.797 64.903 -82.718 Q59.824 -77.639 59.824 -70.221 V-65.545 Z M96.753 -42.647 Q97.556 -42.647 98.04 -43.133 Q98.524 -43.619 98.524 -44.421 V-61.997 H94.976 V-44.421 Q94.976 -43.619 95.463 -43.133 Q95.949 -42.647 96.753 -42.647 Z M58.053 -42.647 Q58.856 -42.647 59.34 -43.133 Q59.824 -43.619 59.824 -44.421 V-61.997 H56.276 V-44.421 Q56.276 -43.619 56.763 -43.133 Q57.249 -42.647 58.053 -42.647 Z"/></g><g id="Bold-M" transform="matrix(1 0 0 1 2281.8 1126)"><path d="M31.5 19.02 Q24.875 19.02 20.312 14.458 Q15.75 9.895 15.75 3.27 V-51.73 Q15.75 -58.355 20.312 -62.917 Q24.875 -67.48 31.5 -67.48 H37.125 Q37.5 -76.73 44.125 -83.105 Q50.75 -89.48 60 -89.48 Q69.25 -89.48 75.875 -83.105 Q82.5 -76.73 82.875 -67.48 H88.5 Q95.125 -67.48 99.688 -62.917 Q104.25 -58.355 104.25 -51.73 V3.27 Q104.25 9.895 99.688 14.458 Q95.125 19.02 88.5 19.02 H31.5 Z M53 -67.48 H67 Q66.625 -70.105 64.688 -71.917 Q62.75 -73.73 60 -73.73 Q57.25 -73.73 55.312 -71.917 Q53.375 -70.105 53 -67.48 Z M75 -36.73 Q78.25 -36.73 80.562 -39.042 Q82.875 -41.355 82.875 -44.605 V-51.73 H67.125 V-44.605 Q67.125 -41.355 69.438 -39.042 Q71.75 -36.73 75 -36.73 Z M45 -36.73 Q48.25 -36.73 50.562 -39.042 Q52.875 -41.355 52.875 -44.605 V-51.73 H37.125 V-44.605 Q37.125 -41.355 39.438 -39.042 Q41.75 -36.73 45 -36.73 Z"/></g><g id="Semibold-M" transform="matrix(1 0 0 1 1985.97 1126)"><path d="M30.848 17.172 Q25.31 17.172 21.454 13.316 Q17.598 9.46 17.598 3.922 V-53.252 Q17.598 -58.79 21.454 -62.646 Q25.31 -66.502 30.848 -66.502 H38.375 Q38.587 -75.317 44.886 -81.475 Q51.185 -87.632 60 -87.632 Q68.815 -87.632 75.114 -81.475 Q81.413 -75.317 81.625 -66.502 H89.152 Q94.69 -66.502 98.546 -62.646 Q102.402 -58.79 102.402 -53.252 V3.922 Q102.402 9.46 98.546 13.316 Q94.69 17.172 89.152 17.172 H30.848 Z M51.696 -66.502 H68.304 Q68.092 -69.779 65.72 -72.08 Q63.348 -74.382 60 -74.382 Q56.652 -74.382 54.28 -72.08 Q51.908 -69.779 51.696 -66.502 Z M75 -38.252 Q77.761 -38.252 79.693 -40.184 Q81.625 -42.116 81.625 -44.877 V-53.252 H68.375 V-44.877 Q68.375 -42.116 70.307 -40.184 Q72.239 -38.252 75 -38.252 Z M45 -38.252 Q47.761 -38.252 49.693 -40.184 Q51.625 -42.116 51.625 -44.877 V-53.252 H38.375 V-44.877 Q38.375 -42.116 40.307 -40.184 Q42.239 -38.252 45 -38.252 Z"/></g><g id="Medium-M" transform="matrix(1 0 0 1 1689.91 1126)"><path d="M30.359 15.786 Q25.636 15.786 22.31 12.46 Q18.984 9.134 18.984 4.411 V-54.393 Q18.984 -59.116 22.31 -62.442 Q25.636 -65.768 30.359 -65.768 H39.312 Q39.402 -74.257 45.456 -80.252 Q51.511 -86.246 60 -86.246 Q68.489 -86.246 74.543 -80.252 Q80.598 -74.257 80.688 -65.768 H89.641 Q94.364 -65.768 97.69 -62.442 Q101.016 -59.116 101.016 -54.393 V4.411 Q101.016 9.134 97.69 12.46 Q94.364 15.786 89.641 15.786 H30.359 Z M50.717 -65.768 H69.283 Q69.193 -69.534 66.495 -72.203 Q63.796 -74.871 60 -74.871 Q56.204 -74.871 53.505 -72.203 Q50.807 -69.534 50.717 -65.768 Z M75 -39.393 Q77.394 -39.393 79.041 -41.04 Q80.688 -42.686 80.688 -45.08 V-54.393 H69.312 V-45.08 Q69.312 -42.686 70.959 -41.04 Q72.606 -39.393 75 -39.393 Z M45 -39.393 Q47.394 -39.393 49.041 -41.04 Q50.688 -42.686 50.688 -45.08 V-54.393 H39.312 V-45.08 Q39.312 -42.686 40.959 -41.04 Q42.606 -39.393 45 -39.393 Z"/></g><g id="Regular-M" transform="matrix(1 0 0 1 1394.06 1126)"><path d="M30 14.77 Q25.875 14.77 22.938 11.833 Q20 8.895 20 4.77 V-55.23 Q20 -59.355 22.938 -62.292 Q25.875 -65.23 30 -65.23 H40 Q40 -73.48 45.875 -79.355 Q51.75 -85.23 60 -85.23 Q68.25 -85.23 74.125 -79.355 Q80 -73.48 80 -65.23 H90 Q94.125 -65.23 97.062 -62.292 Q100 -59.355 100 -55.23 V4.77 Q100 8.895 97.062 11.833 Q94.125 14.77 90 14.77 H30 Z M50 -65.23 H70 Q70 -69.355 67.062 -72.292 Q64.125 -75.23 60 -75.23 Q55.875 -75.23 52.938 -72.292 Q50 -69.355 50 -65.23 Z M75 -40.23 Q77.125 -40.23 78.562 -41.667 Q80 -43.105 80 -45.23 V-55.23 H70 V-45.23 Q70 -43.105 71.438 -41.667 Q72.875 -40.23 75 -40.23 Z M45 -40.23 Q47.125 -40.23 48.562 -41.667 Q50 -43.105 50 -45.23 V-55.23 H40 V-45.23 Q40 -43.105 41.438 -41.667 Q42.875 -40.23 45 -40.23 Z"/></g><g id="Light-M" transform="matrix(1 0 0 1 1098.18 1126)"><path d="M31.539 12.27 Q27.75 12.27 25.125 9.645 Q22.5 7.02 22.5 3.231 V-53.691 Q22.5 -57.48 25.125 -60.105 Q27.75 -62.73 31.539 -62.73 H41.25 V-63.98 Q41.25 -71.749 46.74 -77.239 Q52.231 -82.73 60 -82.73 Q67.769 -82.73 73.26 -77.239 Q78.75 -71.749 78.75 -63.98 V-62.73 H88.461 Q92.25 -62.73 94.875 -60.105 Q97.5 -57.48 97.5 -53.691 V3.231 Q97.5 7.02 94.875 9.645 Q92.25 12.27 88.461 12.27 H31.539 Z M48.75 -62.73 H71.25 V-63.98 Q71.25 -68.682 67.976 -71.956 Q64.702 -75.23 60 -75.23 Q55.298 -75.23 52.024 -71.956 Q48.75 -68.682 48.75 -63.98 V-62.73 Z M75 -40.23 Q76.596 -40.23 77.673 -41.307 Q78.75 -42.384 78.75 -43.98 V-55.23 H71.25 V-43.98 Q71.25 -42.384 72.327 -41.307 Q73.404 -40.23 75 -40.23 Z M45 -40.23 Q46.596 -40.23 47.673 -41.307 Q48.75 -42.384 48.75 -43.98 V-55.23 H41.25 V-43.98 Q41.25 -42.384 42.327 -41.307 Q43.404 -40.23 45 -40.23 Z"/></g><g id="Thin-M" transform="matrix(1 0 0 1 802.565 1126)"><path d="M33.077 9.77 Q29.625 9.77 27.312 7.458 Q25 5.145 25 1.693 V-52.153 Q25 -55.605 27.312 -57.917 Q29.625 -60.23 33.077 -60.23 H42.5 V-62.73 Q42.5 -70.018 47.606 -75.124 Q52.712 -80.23 60 -80.23 Q67.288 -80.23 72.394 -75.124 Q77.5 -70.018 77.5 -62.73 V-60.23 H86.923 Q90.375 -60.23 92.688 -57.917 Q95 -55.605 95 -52.153 V1.693 Q95 5.145 92.688 7.458 Q90.375 9.77 86.923 9.77 H33.077 Z M47.5 -60.23 H72.5 V-62.73 Q72.5 -68.009 68.889 -71.619 Q65.279 -75.23 60 -75.23 Q54.721 -75.23 51.111 -71.619 Q47.5 -68.009 47.5 -62.73 V-60.23 Z M75 -40.23 Q76.067 -40.23 76.784 -40.946 Q77.5 -41.663 77.5 -42.73 V-55.23 H72.5 V-42.73 Q72.5 -41.663 73.216 -40.946 Q73.933 -40.23 75 -40.23 Z M45 -40.23 Q46.067 -40.23 46.784 -40.946 Q47.5 -41.663 47.5 -42.73 V-55.23 H42.5 V-42.73 Q42.5 -41.663 43.216 -40.946 Q43.933 -40.23 45 -40.23 Z"/></g><g id="Ultralight-M" transform="matrix(1 0 0 1 506.415 1126)"><path d="M34 8.27 Q30.75 8.27 28.625 6.145 Q26.5 4.02 26.5 0.77 V-51.23 Q26.5 -54.48 28.625 -56.605 Q30.75 -58.73 34 -58.73 H43.25 V-61.98 Q43.25 -68.98 48.125 -73.855 Q53 -78.73 60 -78.73 Q67 -78.73 71.875 -73.855 Q76.75 -68.98 76.75 -61.98 V-58.73 H86 Q89.25 -58.73 91.375 -56.605 Q93.5 -54.48 93.5 -51.23 V0.77 Q93.5 4.02 91.375 6.145 Q89.25 8.27 86 8.27 H34 Z M46.75 -58.73 H73.25 V-61.98 Q73.25 -67.605 69.438 -71.417 Q65.625 -75.23 60 -75.23 Q54.375 -75.23 50.562 -71.417 Q46.75 -67.605 46.75 -61.98 V-58.73 Z M75 -40.23 Q75.75 -40.23 76.25 -40.73 Q76.75 -41.23 76.75 -41.98 V-55.23 H73.25 V-41.98 Q73.25 -41.23 73.75 -40.73 Q74.25 -40.23 75 -40.23 Z M45 -40.23 Q45.75 -40.23 46.25 -40.73 Q46.75 -41.23 46.75 -41.98 V-55.23 H43.25 V-41.98 Q43.25 -41.23 43.75 -40.73 Q44.25 -40.23 45 -40.23 Z"/></g><g id="Bold-S" transform="matrix(1 0 0 1 2294.23 696)"><path d="M27.193 5.995 Q22.289 5.995 18.936 2.627 Q15.583 -0.741 15.583 -5.642 V-46.67 Q15.583 -51.572 18.951 -54.94 Q22.319 -58.308 27.221 -58.308 H30.87 V-59.886 Q31.166 -66.593 35.752 -71.524 Q40.338 -76.455 47.34 -76.455 Q54.047 -76.455 58.781 -71.918 Q63.515 -67.382 63.81 -60.675 V-58.308 H67.46 Q72.361 -58.308 75.729 -54.94 Q79.097 -51.572 79.097 -46.67 V-5.642 Q79.097 -0.741 75.728 2.627 Q72.359 5.995 67.456 5.995 H27.193 Z M42.606 -58.308 H52.074 V-60.675 Q51.778 -62.421 50.475 -63.619 Q49.172 -64.817 47.319 -64.817 Q45.466 -64.817 44.184 -63.619 Q42.902 -62.421 42.606 -60.675 V-58.308 Z M57.971 -37.202 Q60.358 -37.202 62.084 -38.914 Q63.81 -40.625 63.81 -43.021 V-46.67 H52.173 V-43.021 Q52.173 -40.625 53.878 -38.914 Q55.583 -37.202 57.971 -37.202 Z M36.668 -37.202 Q39.056 -37.202 40.781 -38.914 Q42.507 -40.625 42.507 -43.021 V-46.67 H30.87 V-43.021 Q30.87 -40.625 32.575 -38.914 Q34.28 -37.202 36.668 -37.202 Z"/></g><g id="Semibold-S" transform="matrix(1 0 0 1 1998.1 696)"><path d="M26.678 4.537 Q22.632 4.537 19.836 1.727 Q17.041 -1.084 17.041 -5.128 V-47.871 Q17.041 -51.915 19.851 -54.726 Q22.662 -57.536 26.706 -57.536 H31.856 V-59.114 Q32.023 -65.478 36.352 -70.238 Q40.681 -74.997 47.34 -74.997 Q53.703 -74.997 58.18 -70.632 Q62.657 -66.267 62.824 -59.903 V-57.536 H67.974 Q72.018 -57.536 74.829 -54.726 Q77.639 -51.915 77.639 -47.871 V-5.128 Q77.639 -1.084 74.828 1.727 Q72.016 4.537 67.97 4.537 H26.678 Z M41.577 -57.536 H53.103 V-59.903 Q52.936 -62.164 51.29 -63.748 Q49.644 -65.332 47.319 -65.332 Q44.995 -65.332 43.369 -63.748 Q41.744 -62.164 41.577 -59.903 V-57.536 Z M57.971 -38.403 Q59.973 -38.403 61.398 -39.814 Q62.824 -41.225 62.824 -43.236 V-47.871 H53.159 V-43.236 Q53.159 -41.225 54.564 -39.814 Q55.969 -38.403 57.971 -38.403 Z M36.668 -38.403 Q38.67 -38.403 40.095 -39.814 Q41.521 -41.225 41.521 -43.236 V-47.871 H31.856 V-43.236 Q31.856 -41.225 33.261 -39.814 Q34.666 -38.403 36.668 -38.403 Z"/></g><g id="Medium-S" transform="matrix(1 0 0 1 1701.85 696)"><path d="M26.292 3.444 Q22.89 3.444 20.512 1.051 Q18.134 -1.341 18.134 -4.742 V-48.772 Q18.134 -52.172 20.527 -54.565 Q22.919 -56.957 26.32 -56.957 H32.596 V-58.535 Q32.666 -64.642 36.802 -69.273 Q40.938 -73.904 47.34 -73.904 Q53.446 -73.904 57.73 -69.667 Q62.014 -65.431 62.084 -59.324 V-56.957 H68.36 Q71.761 -56.957 74.153 -54.565 Q76.546 -52.172 76.546 -48.772 V-4.742 Q76.546 -1.341 74.152 1.051 Q71.758 3.444 68.356 3.444 H26.292 Z M40.805 -56.957 H53.875 V-59.324 Q53.804 -61.971 51.901 -63.844 Q49.997 -65.718 47.319 -65.718 Q44.641 -65.718 42.758 -63.844 Q40.876 -61.971 40.805 -59.324 V-56.957 Z M57.971 -39.304 Q59.683 -39.304 60.884 -40.489 Q62.084 -41.675 62.084 -43.397 V-48.772 H53.899 V-43.397 Q53.899 -41.675 55.078 -40.489 Q56.258 -39.304 57.971 -39.304 Z M36.668 -39.304 Q38.38 -39.304 39.581 -40.489 Q40.781 -41.675 40.781 -43.397 V-48.772 H32.596 V-43.397 Q32.596 -41.675 33.775 -40.489 Q34.955 -39.304 36.668 -39.304 Z"/></g><g id="Regular-S" transform="matrix(1 0 0 1 1405.73 696)"><path d="M26.009 2.642 Q23.078 2.642 21.007 0.556 Q18.936 -1.53 18.936 -4.459 V-49.432 Q18.936 -52.361 21.022 -54.447 Q23.108 -56.533 26.037 -56.533 H33.138 V-58.111 Q33.138 -64.028 37.132 -68.565 Q41.127 -73.102 47.34 -73.102 Q53.258 -73.102 57.4 -68.96 Q61.542 -64.817 61.542 -58.9 V-56.533 H68.643 Q71.572 -56.533 73.658 -54.447 Q75.744 -52.361 75.744 -49.432 V-4.459 Q75.744 -1.53 73.657 0.556 Q71.57 2.642 68.639 2.642 H26.009 Z M40.239 -56.533 H54.441 V-58.9 Q54.441 -61.829 52.349 -63.915 Q50.257 -66.001 47.319 -66.001 Q44.381 -66.001 42.31 -63.915 Q40.239 -61.829 40.239 -58.9 V-56.533 Z M57.971 -39.964 Q59.471 -39.964 60.506 -40.985 Q61.542 -42.006 61.542 -43.514 V-49.432 H54.441 V-43.514 Q54.441 -42.006 55.456 -40.985 Q56.471 -39.964 57.971 -39.964 Z M36.668 -39.964 Q38.168 -39.964 39.203 -40.985 Q40.239 -42.006 40.239 -43.514 V-49.432 H33.138 V-43.514 Q33.138 -42.006 34.153 -40.985 Q35.168 -39.964 36.668 -39.964 Z"/></g><g id="Light-S" transform="matrix(1 0 0 1 1109.75 696)"><path d="M27.223 0.669 Q24.558 0.669 22.733 -1.17 Q20.909 -3.009 20.909 -5.673 V-48.218 Q20.909 -50.882 22.748 -52.721 Q24.587 -54.56 27.251 -54.56 H34.124 V-57.125 Q34.124 -62.663 37.815 -66.896 Q41.506 -71.129 47.34 -71.129 Q52.878 -71.129 56.717 -67.291 Q60.556 -63.452 60.556 -57.914 V-54.56 H67.429 Q70.093 -54.56 71.932 -52.721 Q73.771 -50.882 73.771 -48.218 V-5.673 Q73.771 -3.009 71.931 -1.17 Q70.09 0.669 67.425 0.669 H27.223 Z M39.253 -54.56 H55.427 V-57.914 Q55.427 -61.298 53.07 -63.649 Q50.712 -66.001 47.319 -66.001 Q43.926 -66.001 41.589 -63.649 Q39.253 -61.298 39.253 -57.914 V-54.56 Z M57.971 -39.964 Q59.054 -39.964 59.805 -40.7 Q60.556 -41.436 60.556 -42.528 V-49.432 H55.427 V-42.528 Q55.427 -41.436 56.158 -40.7 Q56.888 -39.964 57.971 -39.964 Z M36.668 -39.964 Q37.751 -39.964 38.502 -40.7 Q39.253 -41.436 39.253 -42.528 V-49.432 H34.124 V-42.528 Q34.124 -41.436 34.855 -40.7 Q35.585 -39.964 36.668 -39.964 Z"/></g><g id="Thin-S" transform="matrix(1 0 0 1 814.015 696)"><path d="M28.437 -1.303 Q26.037 -1.303 24.459 -2.896 Q22.881 -4.489 22.881 -6.887 V-47.004 Q22.881 -49.402 24.474 -50.995 Q26.067 -52.588 28.465 -52.588 H35.111 V-56.138 Q35.111 -61.297 38.498 -65.227 Q41.885 -69.157 47.34 -69.157 Q52.499 -69.157 56.034 -65.622 Q59.57 -62.086 59.57 -56.927 V-52.588 H66.215 Q68.613 -52.588 70.206 -50.995 Q71.799 -49.402 71.799 -47.004 V-6.887 Q71.799 -4.489 70.205 -2.896 Q68.611 -1.303 66.211 -1.303 H28.437 Z M38.267 -52.588 H56.413 V-56.927 Q56.413 -60.767 53.79 -63.384 Q51.167 -66.001 47.319 -66.001 Q43.471 -66.001 40.869 -63.384 Q38.267 -60.767 38.267 -56.927 V-52.588 Z M57.971 -39.964 Q58.636 -39.964 59.103 -40.416 Q59.57 -40.868 59.57 -41.542 V-49.432 H56.413 V-41.542 Q56.413 -40.868 56.859 -40.416 Q57.305 -39.964 57.971 -39.964 Z M36.668 -39.964 Q37.333 -39.964 37.8 -40.416 Q38.267 -40.868 38.267 -41.542 V-49.432 H35.111 V-41.542 Q35.111 -40.868 35.556 -40.416 Q36.002 -39.964 36.668 -39.964 Z"/></g><g id="Ultralight-S" transform="matrix(1 0 0 1 517.792 696)"><path d="M29.165 -2.486 Q26.925 -2.486 25.495 -3.931 Q24.065 -5.376 24.065 -7.615 V-46.276 Q24.065 -48.515 25.509 -49.96 Q26.954 -51.404 29.193 -51.404 H35.702 V-55.547 Q35.702 -60.478 38.908 -64.226 Q42.113 -67.973 47.34 -67.973 Q52.271 -67.973 55.625 -64.62 Q58.978 -61.267 58.978 -56.336 V-51.404 H65.487 Q67.726 -51.404 69.171 -49.96 Q70.615 -48.515 70.615 -46.276 V-7.615 Q70.615 -5.376 69.169 -3.931 Q67.723 -2.486 65.483 -2.486 H29.165 Z M37.675 -51.404 H57.005 V-56.336 Q57.005 -60.448 54.223 -63.225 Q51.44 -66.001 47.319 -66.001 Q43.198 -66.001 40.436 -63.225 Q37.675 -60.448 37.675 -56.336 V-51.404 Z M57.971 -39.964 Q58.386 -39.964 58.682 -40.245 Q58.978 -40.526 58.978 -40.95 V-49.432 H57.005 V-40.95 Q57.005 -40.526 57.28 -40.245 Q57.555 -39.964 57.971 -39.964 Z M36.668 -39.964 Q37.083 -39.964 37.379 -40.245 Q37.675 -40.526 37.675 -40.95 V-49.432 H35.702 V-40.95 Q35.702 -40.526 35.977 -40.245 Q36.252 -39.964 36.668 -39.964 Z"/></g></g></svg>